<mxfile host="app.diagrams.net" agent="Mozilla/5.0 (Macintosh; Intel Mac OS X 10_15_7) AppleWebKit/537.36 (KHTML, like Gecko) Chrome/133.0.0.0 Safari/537.36" version="24.8.4">
  <diagram name="第 1 页" id="LzMon-0sLiB57gc9gxIB">
    <mxGraphModel dx="1434" dy="785" grid="1" gridSize="10" guides="1" tooltips="1" connect="1" arrows="1" fold="1" page="1" pageScale="1" pageWidth="1200" pageHeight="1600" math="0" shadow="0">
      <root>
        <mxCell id="0" />
        <mxCell id="1" parent="0" />
        <mxCell id="yL1R_kh2Zd5pm41IRjtq-3" style="edgeStyle=orthogonalEdgeStyle;rounded=0;orthogonalLoop=1;jettySize=auto;html=1;entryX=0.5;entryY=0;entryDx=0;entryDy=0;" edge="1" parent="1" source="yL1R_kh2Zd5pm41IRjtq-1" target="yL1R_kh2Zd5pm41IRjtq-5">
          <mxGeometry relative="1" as="geometry">
            <mxPoint x="210" y="310" as="targetPoint" />
          </mxGeometry>
        </mxCell>
        <mxCell id="yL1R_kh2Zd5pm41IRjtq-1" value="Python" style="rounded=0;whiteSpace=wrap;html=1;fillColor=#fff2cc;strokeColor=#d6b656;" vertex="1" parent="1">
          <mxGeometry x="150" y="110" width="120" height="60" as="geometry" />
        </mxCell>
        <mxCell id="yL1R_kh2Zd5pm41IRjtq-4" value="数据准备" style="rounded=0;whiteSpace=wrap;html=1;fillColor=#fff2cc;strokeColor=#d6b656;" vertex="1" parent="1">
          <mxGeometry x="150" y="230" width="120" height="60" as="geometry" />
        </mxCell>
        <mxCell id="yL1R_kh2Zd5pm41IRjtq-7" value="" style="edgeStyle=orthogonalEdgeStyle;rounded=0;orthogonalLoop=1;jettySize=auto;html=1;" edge="1" parent="1" source="yL1R_kh2Zd5pm41IRjtq-5" target="yL1R_kh2Zd5pm41IRjtq-6">
          <mxGeometry relative="1" as="geometry" />
        </mxCell>
        <mxCell id="yL1R_kh2Zd5pm41IRjtq-5" value="数据处理（推荐算法开发）" style="rounded=0;whiteSpace=wrap;html=1;fillColor=#fff2cc;strokeColor=#d6b656;" vertex="1" parent="1">
          <mxGeometry x="150" y="340" width="120" height="60" as="geometry" />
        </mxCell>
        <mxCell id="yL1R_kh2Zd5pm41IRjtq-8" style="edgeStyle=orthogonalEdgeStyle;rounded=0;orthogonalLoop=1;jettySize=auto;html=1;" edge="1" parent="1">
          <mxGeometry relative="1" as="geometry">
            <mxPoint x="360" y="280" as="sourcePoint" />
            <mxPoint x="530" y="140" as="targetPoint" />
            <Array as="points">
              <mxPoint x="360" y="140" />
            </Array>
          </mxGeometry>
        </mxCell>
        <mxCell id="yL1R_kh2Zd5pm41IRjtq-6" value="输出推荐结果（商品推荐列表）" style="whiteSpace=wrap;html=1;rounded=0;fillColor=#fff2cc;strokeColor=#d6b656;" vertex="1" parent="1">
          <mxGeometry x="150" y="480" width="120" height="60" as="geometry" />
        </mxCell>
        <mxCell id="yL1R_kh2Zd5pm41IRjtq-9" value="" style="edgeStyle=orthogonalEdgeStyle;rounded=0;orthogonalLoop=1;jettySize=auto;html=1;exitX=1;exitY=0.5;exitDx=0;exitDy=0;" edge="1" parent="1" source="yL1R_kh2Zd5pm41IRjtq-6">
          <mxGeometry relative="1" as="geometry">
            <mxPoint x="300" y="535" as="sourcePoint" />
            <mxPoint x="360" y="330" as="targetPoint" />
            <Array as="points">
              <mxPoint x="360" y="510" />
            </Array>
          </mxGeometry>
        </mxCell>
        <mxCell id="yL1R_kh2Zd5pm41IRjtq-10" value="Java后端调用PythonAPI" style="text;html=1;align=center;verticalAlign=middle;whiteSpace=wrap;rounded=0;" vertex="1" parent="1">
          <mxGeometry x="330" y="290" width="60" height="30" as="geometry" />
        </mxCell>
        <mxCell id="yL1R_kh2Zd5pm41IRjtq-49" value="" style="edgeStyle=orthogonalEdgeStyle;rounded=0;orthogonalLoop=1;jettySize=auto;html=1;" edge="1" parent="1">
          <mxGeometry relative="1" as="geometry">
            <mxPoint x="715" y="430" as="sourcePoint" />
            <mxPoint x="715" y="470" as="targetPoint" />
          </mxGeometry>
        </mxCell>
        <mxCell id="yL1R_kh2Zd5pm41IRjtq-34" value="" style="edgeStyle=orthogonalEdgeStyle;rounded=0;orthogonalLoop=1;jettySize=auto;html=1;" edge="1" parent="1" source="yL1R_kh2Zd5pm41IRjtq-15">
          <mxGeometry relative="1" as="geometry">
            <mxPoint x="495" y="270" as="targetPoint" />
            <Array as="points">
              <mxPoint x="595" y="240" />
              <mxPoint x="496" y="240" />
            </Array>
          </mxGeometry>
        </mxCell>
        <mxCell id="yL1R_kh2Zd5pm41IRjtq-36" value="" style="edgeStyle=orthogonalEdgeStyle;rounded=0;orthogonalLoop=1;jettySize=auto;html=1;" edge="1" parent="1" source="yL1R_kh2Zd5pm41IRjtq-15" target="yL1R_kh2Zd5pm41IRjtq-35">
          <mxGeometry relative="1" as="geometry" />
        </mxCell>
        <mxCell id="yL1R_kh2Zd5pm41IRjtq-41" value="" style="edgeStyle=orthogonalEdgeStyle;rounded=0;orthogonalLoop=1;jettySize=auto;html=1;" edge="1" parent="1" source="yL1R_kh2Zd5pm41IRjtq-15" target="yL1R_kh2Zd5pm41IRjtq-35">
          <mxGeometry relative="1" as="geometry" />
        </mxCell>
        <mxCell id="yL1R_kh2Zd5pm41IRjtq-42" value="" style="edgeStyle=orthogonalEdgeStyle;rounded=0;orthogonalLoop=1;jettySize=auto;html=1;" edge="1" parent="1" source="yL1R_kh2Zd5pm41IRjtq-15" target="yL1R_kh2Zd5pm41IRjtq-35">
          <mxGeometry relative="1" as="geometry" />
        </mxCell>
        <mxCell id="yL1R_kh2Zd5pm41IRjtq-44" value="" style="edgeStyle=orthogonalEdgeStyle;rounded=0;orthogonalLoop=1;jettySize=auto;html=1;entryX=0.5;entryY=0;entryDx=0;entryDy=0;" edge="1" parent="1" source="yL1R_kh2Zd5pm41IRjtq-15" target="yL1R_kh2Zd5pm41IRjtq-45">
          <mxGeometry relative="1" as="geometry">
            <mxPoint x="775" y="260" as="targetPoint" />
            <Array as="points">
              <mxPoint x="595" y="240" />
              <mxPoint x="715" y="240" />
            </Array>
          </mxGeometry>
        </mxCell>
        <mxCell id="yL1R_kh2Zd5pm41IRjtq-15" value="微服务" style="rounded=1;whiteSpace=wrap;html=1;fillColor=#dae8fc;strokeColor=#6c8ebf;" vertex="1" parent="1">
          <mxGeometry x="535" y="100" width="120" height="80" as="geometry" />
        </mxCell>
        <mxCell id="yL1R_kh2Zd5pm41IRjtq-35" value="微服务B" style="rounded=1;whiteSpace=wrap;html=1;" vertex="1" parent="1">
          <mxGeometry x="542.5" y="270" width="105" height="60" as="geometry" />
        </mxCell>
        <mxCell id="yL1R_kh2Zd5pm41IRjtq-38" value="微服务A" style="rounded=1;whiteSpace=wrap;html=1;" vertex="1" parent="1">
          <mxGeometry x="425" y="270" width="100" height="60" as="geometry" />
        </mxCell>
        <mxCell id="yL1R_kh2Zd5pm41IRjtq-48" value="" style="edgeStyle=orthogonalEdgeStyle;rounded=0;orthogonalLoop=1;jettySize=auto;html=1;" edge="1" parent="1" source="yL1R_kh2Zd5pm41IRjtq-45">
          <mxGeometry relative="1" as="geometry">
            <mxPoint x="715" y="370" as="targetPoint" />
          </mxGeometry>
        </mxCell>
        <mxCell id="yL1R_kh2Zd5pm41IRjtq-45" value="微服务C（推荐算法及其它算法API、实现层）" style="rounded=1;whiteSpace=wrap;html=1;fillColor=#dae8fc;strokeColor=#6c8ebf;" vertex="1" parent="1">
          <mxGeometry x="665" y="270" width="100" height="60" as="geometry" />
        </mxCell>
        <mxCell id="yL1R_kh2Zd5pm41IRjtq-51" value="获取到推荐结果" style="rounded=1;whiteSpace=wrap;html=1;fillColor=#dae8fc;strokeColor=#6c8ebf;" vertex="1" parent="1">
          <mxGeometry x="665" y="370" width="100" height="60" as="geometry" />
        </mxCell>
        <mxCell id="yL1R_kh2Zd5pm41IRjtq-52" value="将推荐商品展示给用户" style="rounded=1;whiteSpace=wrap;html=1;fillColor=#dae8fc;strokeColor=#6c8ebf;" vertex="1" parent="1">
          <mxGeometry x="665" y="470" width="100" height="60" as="geometry" />
        </mxCell>
      </root>
    </mxGraphModel>
  </diagram>
</mxfile>
